<svg width="29" height="23" viewBox="0 0 29 23" fill="none" xmlns="http://www.w3.org/2000/svg">
<path d="M10.1177 22.8857L10.1102 22.8818L10.0865 22.8665C9.94785 22.776 9.81035 22.6832 9.674 22.5879C8.03472 21.4322 6.50276 20.0744 5.10354 18.5373C2.62554 15.7938 0 11.7227 0 6.7086C0 2.96717 2.65354 9.06622e-05 5.85631 9.06622e-05C6.74666 -0.00508374 7.62653 0.227976 8.4305 0.681937C9.23447 1.1359 9.94184 1.79908 10.5 2.62216C11.0583 1.79891 11.7658 1.13563 12.57 0.681659C13.3742 0.227691 14.2542 -0.00527615 15.1448 9.06622e-05C18.3465 9.06622e-05 21 2.96717 21 6.7086C21 11.724 18.3745 15.7951 15.8965 18.536C14.4973 20.0732 12.9653 21.4309 11.326 22.5867C11.1897 22.6823 11.0522 22.7756 10.9135 22.8665L10.8898 22.8818L10.8823 22.887L10.8791 22.8882C10.7623 22.9616 10.6322 23 10.5 23C10.3678 23 10.2377 22.9616 10.1209 22.8882L10.1177 22.8857Z" fill="white"/>
<path d="M20.8933 18.9668L24.0833 12.7335H21.8833V8.70012L18.5833 14.9335H20.8933V18.9668ZM21.3333 21.1668C20.3189 21.1668 19.3656 20.9743 18.4733 20.5893C17.5811 20.2043 16.805 19.6818 16.145 19.0218C15.485 18.3618 14.9625 17.5857 14.5775 16.6935C14.1925 15.8012 14 14.8479 14 13.8335C14 12.819 14.1925 11.8657 14.5775 10.9735C14.9625 10.0812 15.485 9.30512 16.145 8.64512C16.805 7.98512 17.5811 7.46262 18.4733 7.07762C19.3656 6.69262 20.3189 6.50012 21.3333 6.50012C22.3478 6.50012 23.3011 6.69262 24.1933 7.07762C25.0856 7.46262 25.8617 7.98512 26.5217 8.64512C27.1817 9.30512 27.7042 10.0812 28.0892 10.9735C28.4742 11.8657 28.6667 12.819 28.6667 13.8335C28.6667 14.8479 28.4742 15.8012 28.0892 16.6935C27.7042 17.5857 27.1817 18.3618 26.5217 19.0218C25.8617 19.6818 25.0856 20.2043 24.1933 20.5893C23.3011 20.9743 22.3478 21.1668 21.3333 21.1668Z" fill="#894189"/>
<path d="M21.2667 18.5001L24.1667 12.8334H22.1667V9.16675L19.1667 14.8334H21.2667V18.5001ZM21.6667 20.5001C20.7444 20.5001 19.8778 20.3251 19.0667 19.9751C18.2556 19.6251 17.55 19.1501 16.95 18.5501C16.35 17.9501 15.875 17.2445 15.525 16.4334C15.175 15.6223 15 14.7556 15 13.8334C15 12.9112 15.175 12.0445 15.525 11.2334C15.875 10.4223 16.35 9.71675 16.95 9.11675C17.55 8.51675 18.2556 8.04175 19.0667 7.69175C19.8778 7.34175 20.7444 7.16675 21.6667 7.16675C22.5889 7.16675 23.4556 7.34175 24.2667 7.69175C25.0778 8.04175 25.7833 8.51675 26.3833 9.11675C26.9833 9.71675 27.4583 10.4223 27.8083 11.2334C28.1583 12.0445 28.3333 12.9112 28.3333 13.8334C28.3333 14.7556 28.1583 15.6223 27.8083 16.4334C27.4583 17.2445 26.9833 17.9501 26.3833 18.5501C25.7833 19.1501 25.0778 19.6251 24.2667 19.9751C23.4556 20.3251 22.5889 20.5001 21.6667 20.5001Z" fill="white"/>
</svg>
